#define BMP_width 8
#define BMP_height 2560
static char BMP_bits[] = {
  0x00, 
  0x00, 
  0x00, 
  0x00, 
  0x00, 
  0x00, 
  0x00, 
  0x00, 
  0x00, 
  0x04, 
  0x04, 
  0x04, 
  0x04, 
  0x00, 
  0x04, 
  0x00, 
  0x00, 
  0x0a, 
  0x0a, 
  0x0a, 
  0x00, 
  0x00, 
  0x00, 
  0x00, 
  0x0a, 
  0x0a, 
  0x1f, 
  0x0a, 
  0x1f, 
  0x0a, 
  0x0a, 
  0x00, 
  0x04, 
  0x0e, 
  0x05, 
  0x0e, 
  0x14, 
  0x0e, 
  0x04, 
  0x00, 
  0x00, 
  0x02, 
  0x0a, 
  0x04, 
  0x0a, 
  0x08, 
  0x00, 
  0x00, 
  0x02, 
  0x05, 
  0x05, 
  0x02, 
  0x05, 
  0x05, 
  0x0a, 
  0x00, 
  0x00, 
  0x04, 
  0x04, 
  0x04, 
  0x00, 
  0x00, 
  0x00, 
  0x00, 
  0x00, 
  0x04, 
  0x02, 
  0x02, 
  0x02, 
  0x02, 
  0x04, 
  0x00, 
  0x00, 
  0x02, 
  0x04, 
  0x04, 
  0x04, 
  0x04, 
  0x02, 
  0x00, 
  0x00, 
  0x00, 
  0x09, 
  0x06, 
  0x0f, 
  0x06, 
  0x09, 
  0x00, 
  0x00, 
  0x00, 
  0x04, 
  0x04, 
  0x1f, 
  0x04, 
  0x04, 
  0x00, 
  0x00, 
  0x00, 
  0x00, 
  0x00, 
  0x00, 
  0x0c, 
  0x04, 
  0x02, 
  0x00, 
  0x00, 
  0x00, 
  0x00, 
  0x0f, 
  0x00, 
  0x00, 
  0x00, 
  0x00, 
  0x00, 
  0x00, 
  0x00, 
  0x00, 
  0x04, 
  0x0e, 
  0x04, 
  0x00, 
  0x08, 
  0x08, 
  0x04, 
  0x02, 
  0x01, 
  0x01, 
  0x00, 
  0x00, 
  0x04, 
  0x0a, 
  0x0a, 
  0x0a, 
  0x0a, 
  0x04, 
  0x00, 
  0x00, 
  0x04, 
  0x06, 
  0x04, 
  0x04, 
  0x04, 
  0x0e, 
  0x00, 
  0x00, 
  0x06, 
  0x09, 
  0x08, 
  0x06, 
  0x01, 
  0x0f, 
  0x00, 
  0x00, 
  0x0f, 
  0x04, 
  0x06, 
  0x08, 
  0x09, 
  0x06, 
  0x00, 
  0x00, 
  0x04, 
  0x06, 
  0x05, 
  0x0f, 
  0x04, 
  0x04, 
  0x00, 
  0x00, 
  0x0f, 
  0x01, 
  0x07, 
  0x08, 
  0x09, 
  0x06, 
  0x00, 
  0x00, 
  0x06, 
  0x01, 
  0x07, 
  0x09, 
  0x09, 
  0x06, 
  0x00, 
  0x00, 
  0x0f, 
  0x08, 
  0x04, 
  0x04, 
  0x02, 
  0x02, 
  0x00, 
  0x00, 
  0x06, 
  0x09, 
  0x06, 
  0x09, 
  0x09, 
  0x06, 
  0x00, 
  0x00, 
  0x06, 
  0x09, 
  0x09, 
  0x0e, 
  0x08, 
  0x06, 
  0x00, 
  0x00, 
  0x00, 
  0x06, 
  0x06, 
  0x00, 
  0x06, 
  0x06, 
  0x00, 
  0x00, 
  0x00, 
  0x0c, 
  0x0c, 
  0x00, 
  0x0c, 
  0x04, 
  0x02, 
  0x00, 
  0x08, 
  0x04, 
  0x02, 
  0x02, 
  0x04, 
  0x08, 
  0x00, 
  0x00, 
  0x00, 
  0x00, 
  0x0f, 
  0x00, 
  0x0f, 
  0x00, 
  0x00, 
  0x00, 
  0x02, 
  0x04, 
  0x08, 
  0x08, 
  0x04, 
  0x02, 
  0x00, 
  0x00, 
  0x04, 
  0x0a, 
  0x08, 
  0x04, 
  0x00, 
  0x04, 
  0x00, 
  0x0c, 
  0x12, 
  0x19, 
  0x15, 
  0x15, 
  0x09, 
  0x02, 
  0x0c, 
  0x00, 
  0x06, 
  0x09, 
  0x09, 
  0x0f, 
  0x09, 
  0x09, 
  0x00, 
  0x00, 
  0x07, 
  0x09, 
  0x07, 
  0x09, 
  0x09, 
  0x07, 
  0x00, 
  0x00, 
  0x06, 
  0x09, 
  0x01, 
  0x01, 
  0x09, 
  0x06, 
  0x00, 
  0x00, 
  0x07, 
  0x09, 
  0x09, 
  0x09, 
  0x09, 
  0x07, 
  0x00, 
  0x00, 
  0x0f, 
  0x01, 
  0x07, 
  0x01, 
  0x01, 
  0x0f, 
  0x00, 
  0x00, 
  0x0f, 
  0x01, 
  0x07, 
  0x01, 
  0x01, 
  0x01, 
  0x00, 
  0x00, 
  0x06, 
  0x09, 
  0x01, 
  0x0d, 
  0x09, 
  0x06, 
  0x00, 
  0x00, 
  0x09, 
  0x09, 
  0x0f, 
  0x09, 
  0x09, 
  0x09, 
  0x00, 
  0x00, 
  0x0e, 
  0x04, 
  0x04, 
  0x04, 
  0x04, 
  0x0e, 
  0x00, 
  0x00, 
  0x0e, 
  0x04, 
  0x04, 
  0x04, 
  0x05, 
  0x02, 
  0x00, 
  0x00, 
  0x09, 
  0x05, 
  0x03, 
  0x05, 
  0x05, 
  0x09, 
  0x00, 
  0x00, 
  0x01, 
  0x01, 
  0x01, 
  0x01, 
  0x01, 
  0x0f, 
  0x00, 
  0x00, 
  0x09, 
  0x0f, 
  0x0f, 
  0x09, 
  0x09, 
  0x09, 
  0x00, 
  0x00, 
  0x09, 
  0x0b, 
  0x0f, 
  0x0d, 
  0x0d, 
  0x09, 
  0x00, 
  0x00, 
  0x06, 
  0x09, 
  0x09, 
  0x09, 
  0x09, 
  0x06, 
  0x00, 
  0x00, 
  0x07, 
  0x09, 
  0x09, 
  0x07, 
  0x01, 
  0x01, 
  0x00, 
  0x00, 
  0x06, 
  0x09, 
  0x09, 
  0x0b, 
  0x0d, 
  0x06, 
  0x08, 
  0x00, 
  0x07, 
  0x09, 
  0x09, 
  0x07, 
  0x09, 
  0x09, 
  0x00, 
  0x00, 
  0x06, 
  0x09, 
  0x02, 
  0x04, 
  0x09, 
  0x06, 
  0x00, 
  0x00, 
  0x0e, 
  0x04, 
  0x04, 
  0x04, 
  0x04, 
  0x04, 
  0x00, 
  0x00, 
  0x09, 
  0x09, 
  0x09, 
  0x09, 
  0x09, 
  0x06, 
  0x00, 
  0x00, 
  0x09, 
  0x09, 
  0x09, 
  0x09, 
  0x06, 
  0x06, 
  0x00, 
  0x00, 
  0x09, 
  0x09, 
  0x09, 
  0x0f, 
  0x0f, 
  0x09, 
  0x00, 
  0x00, 
  0x09, 
  0x09, 
  0x06, 
  0x06, 
  0x09, 
  0x09, 
  0x00, 
  0x00, 
  0x11, 
  0x11, 
  0x0a, 
  0x04, 
  0x04, 
  0x04, 
  0x00, 
  0x00, 
  0x0f, 
  0x08, 
  0x04, 
  0x02, 
  0x01, 
  0x0f, 
  0x00, 
  0x00, 
  0x0e, 
  0x02, 
  0x02, 
  0x02, 
  0x02, 
  0x0e, 
  0x00, 
  0x00, 
  0x01, 
  0x01, 
  0x02, 
  0x04, 
  0x08, 
  0x08, 
  0x00, 
  0x00, 
  0x0e, 
  0x08, 
  0x08, 
  0x08, 
  0x08, 
  0x0e, 
  0x00, 
  0x00, 
  0x04, 
  0x0a, 
  0x00, 
  0x00, 
  0x00, 
  0x00, 
  0x00, 
  0x00, 
  0x00, 
  0x00, 
  0x00, 
  0x00, 
  0x00, 
  0x00, 
  0x0f, 
  0x00, 
  0x02, 
  0x04, 
  0x00, 
  0x00, 
  0x00, 
  0x00, 
  0x00, 
  0x00, 
  0x00, 
  0x00, 
  0x0e, 
  0x09, 
  0x09, 
  0x0e, 
  0x00, 
  0x00, 
  0x01, 
  0x01, 
  0x07, 
  0x09, 
  0x09, 
  0x07, 
  0x00, 
  0x00, 
  0x00, 
  0x00, 
  0x0c, 
  0x02, 
  0x02, 
  0x0c, 
  0x00, 
  0x00, 
  0x08, 
  0x08, 
  0x0e, 
  0x09, 
  0x09, 
  0x0e, 
  0x00, 
  0x00, 
  0x00, 
  0x00, 
  0x06, 
  0x0d, 
  0x03, 
  0x06, 
  0x00, 
  0x00, 
  0x04, 
  0x0a, 
  0x02, 
  0x07, 
  0x02, 
  0x02, 
  0x00, 
  0x00, 
  0x00, 
  0x00, 
  0x06, 
  0x09, 
  0x0e, 
  0x08, 
  0x06, 
  0x00, 
  0x01, 
  0x01, 
  0x07, 
  0x09, 
  0x09, 
  0x09, 
  0x00, 
  0x00, 
  0x04, 
  0x00, 
  0x06, 
  0x04, 
  0x04, 
  0x0e, 
  0x00, 
  0x00, 
  0x08, 
  0x00, 
  0x08, 
  0x08, 
  0x08, 
  0x0a, 
  0x04, 
  0x00, 
  0x01, 
  0x01, 
  0x09, 
  0x07, 
  0x09, 
  0x09, 
  0x00, 
  0x00, 
  0x06, 
  0x04, 
  0x04, 
  0x04, 
  0x04, 
  0x0e, 
  0x00, 
  0x00, 
  0x00, 
  0x00, 
  0x0b, 
  0x15, 
  0x15, 
  0x15, 
  0x00, 
  0x00, 
  0x00, 
  0x00, 
  0x07, 
  0x09, 
  0x09, 
  0x09, 
  0x00, 
  0x00, 
  0x00, 
  0x00, 
  0x06, 
  0x09, 
  0x09, 
  0x06, 
  0x00, 
  0x00, 
  0x00, 
  0x00, 
  0x07, 
  0x09, 
  0x07, 
  0x01, 
  0x01, 
  0x00, 
  0x00, 
  0x00, 
  0x0e, 
  0x09, 
  0x0e, 
  0x08, 
  0x08, 
  0x00, 
  0x00, 
  0x00, 
  0x05, 
  0x0b, 
  0x01, 
  0x01, 
  0x00, 
  0x00, 
  0x00, 
  0x00, 
  0x0c, 
  0x06, 
  0x08, 
  0x06, 
  0x00, 
  0x00, 
  0x02, 
  0x02, 
  0x07, 
  0x02, 
  0x0a, 
  0x04, 
  0x00, 
  0x00, 
  0x00, 
  0x00, 
  0x09, 
  0x09, 
  0x09, 
  0x0e, 
  0x00, 
  0x00, 
  0x00, 
  0x00, 
  0x0a, 
  0x0a, 
  0x0a, 
  0x04, 
  0x00, 
  0x00, 
  0x00, 
  0x00, 
  0x11, 
  0x15, 
  0x15, 
  0x0a, 
  0x00, 
  0x00, 
  0x00, 
  0x00, 
  0x09, 
  0x06, 
  0x06, 
  0x09, 
  0x00, 
  0x00, 
  0x00, 
  0x00, 
  0x09, 
  0x09, 
  0x0e, 
  0x09, 
  0x06, 
  0x00, 
  0x00, 
  0x00, 
  0x0f, 
  0x04, 
  0x02, 
  0x0f, 
  0x00, 
  0x0c, 
  0x02, 
  0x04, 
  0x03, 
  0x04, 
  0x02, 
  0x0c, 
  0x00, 
  0x00, 
  0x04, 
  0x04, 
  0x04, 
  0x04, 
  0x04, 
  0x04, 
  0x00, 
  0x03, 
  0x04, 
  0x02, 
  0x0c, 
  0x02, 
  0x04, 
  0x03, 
  0x00, 
  0x00, 
  0x0a, 
  0x05, 
  0x00, 
  0x00, 
  0x00, 
  0x00, 
  0x00, 
  0x00, 
  0x05, 
  0x08, 
  0x01, 
  0x08, 
  0x01, 
  0x0a, 
  0x00, 
  0x02, 
  0x04, 
  0x00, 
  0x0e, 
  0x09, 
  0x09, 
  0x0e, 
  0x00, 
  0x04, 
  0x02, 
  0x00, 
  0x0e, 
  0x09, 
  0x09, 
  0x0e, 
  0x00, 
  0x04, 
  0x0a, 
  0x00, 
  0x0e, 
  0x09, 
  0x09, 
  0x0e, 
  0x00, 
  0x0a, 
  0x05, 
  0x00, 
  0x0e, 
  0x09, 
  0x09, 
  0x0e, 
  0x00, 
  0x00, 
  0x0a, 
  0x00, 
  0x0e, 
  0x09, 
  0x09, 
  0x0e, 
  0x00, 
  0x06, 
  0x09, 
  0x06, 
  0x0e, 
  0x09, 
  0x09, 
  0x0e, 
  0x00, 
  0x00, 
  0x00, 
  0x00, 
  0x0f, 
  0x16, 
  0x0d, 
  0x1e, 
  0x00, 
  0x00, 
  0x00, 
  0x00, 
  0x0c, 
  0x02, 
  0x02, 
  0x0c, 
  0x04, 
  0x02, 
  0x04, 
  0x00, 
  0x06, 
  0x0d, 
  0x03, 
  0x06, 
  0x00, 
  0x04, 
  0x02, 
  0x00, 
  0x06, 
  0x0d, 
  0x03, 
  0x06, 
  0x00, 
  0x06, 
  0x09, 
  0x00, 
  0x06, 
  0x0d, 
  0x03, 
  0x06, 
  0x00, 
  0x00, 
  0x0a, 
  0x00, 
  0x06, 
  0x0d, 
  0x03, 
  0x06, 
  0x00, 
  0x02, 
  0x04, 
  0x00, 
  0x06, 
  0x04, 
  0x04, 
  0x0e, 
  0x00, 
  0x08, 
  0x04, 
  0x00, 
  0x06, 
  0x04, 
  0x04, 
  0x0e, 
  0x00, 
  0x04, 
  0x0a, 
  0x00, 
  0x06, 
  0x04, 
  0x04, 
  0x0e, 
  0x00, 
  0x00, 
  0x0a, 
  0x00, 
  0x06, 
  0x04, 
  0x04, 
  0x0e, 
  0x00, 
  0x05, 
  0x02, 
  0x05, 
  0x08, 
  0x0e, 
  0x09, 
  0x06, 
  0x00, 
  0x0a, 
  0x05, 
  0x00, 
  0x07, 
  0x09, 
  0x09, 
  0x09, 
  0x00, 
  0x02, 
  0x04, 
  0x00, 
  0x06, 
  0x09, 
  0x09, 
  0x06, 
  0x00, 
  0x04, 
  0x02, 
  0x00, 
  0x06, 
  0x09, 
  0x09, 
  0x06, 
  0x00, 
  0x06, 
  0x09, 
  0x00, 
  0x06, 
  0x09, 
  0x09, 
  0x06, 
  0x00, 
  0x0a, 
  0x05, 
  0x00, 
  0x06, 
  0x09, 
  0x09, 
  0x06, 
  0x00, 
  0x00, 
  0x09, 
  0x00, 
  0x06, 
  0x09, 
  0x09, 
  0x06, 
  0x00, 
  0x00, 
  0x00, 
  0x04, 
  0x00, 
  0x0e, 
  0x00, 
  0x04, 
  0x00, 
  0x00, 
  0x00, 
  0x00, 
  0x0e, 
  0x0d, 
  0x0b, 
  0x07, 
  0x00, 
  0x02, 
  0x04, 
  0x00, 
  0x09, 
  0x09, 
  0x09, 
  0x0e, 
  0x00, 
  0x04, 
  0x02, 
  0x00, 
  0x09, 
  0x09, 
  0x09, 
  0x0e, 
  0x00, 
  0x06, 
  0x09, 
  0x00, 
  0x09, 
  0x09, 
  0x09, 
  0x0e, 
  0x00, 
  0x00, 
  0x09, 
  0x00, 
  0x09, 
  0x09, 
  0x09, 
  0x0e, 
  0x00, 
  0x04, 
  0x02, 
  0x00, 
  0x09, 
  0x09, 
  0x0e, 
  0x09, 
  0x06, 
  0x00, 
  0x01, 
  0x01, 
  0x07, 
  0x09, 
  0x07, 
  0x01, 
  0x01, 
  0x00, 
  0x09, 
  0x00, 
  0x09, 
  0x09, 
  0x0e, 
  0x09, 
  0x06, 
  0x00, 
  0x00, 
  0x00, 
  0x00, 
  0x00, 
  0x00, 
  0x00, 
  0x00, 
  0x00, 
  0x00, 
  0x00, 
  0x00, 
  0x00, 
  0x00, 
  0x00, 
  0x00, 
  0x00, 
  0x00, 
  0x00, 
  0x00, 
  0x00, 
  0x00, 
  0x00, 
  0x00, 
  0x00, 
  0x00, 
  0x00, 
  0x00, 
  0x00, 
  0x00, 
  0x00, 
  0x00, 
  0x00, 
  0x00, 
  0x00, 
  0x00, 
  0x00, 
  0x00, 
  0x00, 
  0x00, 
  0x00, 
  0x00, 
  0x00, 
  0x00, 
  0x00, 
  0x00, 
  0x00, 
  0x00, 
  0x00, 
  0x00, 
  0x00, 
  0x00, 
  0x00, 
  0x00, 
  0x00, 
  0x00, 
  0x00, 
  0x00, 
  0x00, 
  0x00, 
  0x00, 
  0x00, 
  0x00, 
  0x00, 
  0x00, 
  0x00, 
  0x00, 
  0x00, 
  0x00, 
  0x00, 
  0x00, 
  0x00, 
  0x00, 
  0x00, 
  0x00, 
  0x00, 
  0x00, 
  0x00, 
  0x00, 
  0x00, 
  0x00, 
  0x00, 
  0x00, 
  0x00, 
  0x00, 
  0x00, 
  0x00, 
  0x00, 
  0x00, 
  0x00, 
  0x00, 
  0x00, 
  0x00, 
  0x00, 
  0x00, 
  0x00, 
  0x00, 
  0x00, 
  0x00, 
  0x00, 
  0x00, 
  0x00, 
  0x00, 
  0x00, 
  0x00, 
  0x00, 
  0x00, 
  0x00, 
  0x00, 
  0x00, 
  0x00, 
  0x00, 
  0x00, 
  0x00, 
  0x00, 
  0x00, 
  0x00, 
  0x00, 
  0x00, 
  0x00, 
  0x00, 
  0x00, 
  0x00, 
  0x00, 
  0x00, 
  0x00, 
  0x00, 
  0x00, 
  0x00, 
  0x00, 
  0x00, 
  0x00, 
  0x00, 
  0x00, 
  0x00, 
  0x00, 
  0x00, 
  0x00, 
  0x00, 
  0x00, 
  0x00, 
  0x00, 
  0x00, 
  0x00, 
  0x00, 
  0x00, 
  0x00, 
  0x00, 
  0x00, 
  0x00, 
  0x00, 
  0x00, 
  0x00, 
  0x00, 
  0x00, 
  0x00, 
  0x00, 
  0x00, 
  0x00, 
  0x00, 
  0x00, 
  0x00, 
  0x00, 
  0x00, 
  0x00, 
  0x00, 
  0x00, 
  0x00, 
  0x00, 
  0x00, 
  0x00, 
  0x00, 
  0x00, 
  0x00, 
  0x00, 
  0x00, 
  0x00, 
  0x00, 
  0x00, 
  0x00, 
  0x00, 
  0x00, 
  0x00, 
  0x00, 
  0x00, 
  0x00, 
  0x00, 
  0x00, 
  0x00, 
  0x00, 
  0x00, 
  0x00, 
  0x00, 
  0x00, 
  0x00, 
  0x00, 
  0x00, 
  0x00, 
  0x00, 
  0x00, 
  0x00, 
  0x00, 
  0x00, 
  0x00, 
  0x00, 
  0x00, 
  0x00, 
  0x00, 
  0x00, 
  0x00, 
  0x00, 
  0x00, 
  0x00, 
  0x00, 
  0x00, 
  0x00, 
  0x00, 
  0x00, 
  0x00, 
  0x00, 
  0x00, 
  0x00, 
  0x00, 
  0x00, 
  0x00, 
  0x00, 
  0x00, 
  0x00, 
  0x00, 
  0x00, 
  0x00, 
  0x00, 
  0x00, 
  0x00, 
  0x00, 
  0x00, 
  0x00, 
  0x00, 
  0x00, 
  0x00, 
  0x00, 
  0x00, 
  0x00, 
  0x00, 
  0x00, 
  0x00, 
  0x00, 
  0x00, 
  0x00, 
  0x00, 
  0x00, 
  0x00, 
  0x00, 
  0x00, 
  0x00, 
  0x00, 
  0x00, 
  0x00, 
  0x00, 
  0x00, 
  0x00, 
  0x00, 
  0x00, 
  0x00, 
  0x00, 
  0x00, 
  0x00, 
  0x00, 
  0x00, 
  0x00, 
  0x00, 
  0x00, 
  0x00, 
  0x00, 
  0x00, 
  0x00, 
  0x00, 
  0x00, 
  0x00, 
  0x00, 
  0x00, 
  0x00, 
  0x00, 
  0x00, 
  0x00, 
  0x00, 
  0x00, 
  0x00, 
  0x00, 
  0x00, 
  0x00, 
  0x00, 
  0x00, 
  0x00, 
  0x00, 
  0x00, 
  0x00, 
  0x00, 
  0x00, 
  0x00, 
  0x00, 
  0x00, 
  0x00, 
  0x00, 
  0x00, 
  0x00, 
  0x00, 
  0x00, 
  0x00, 
  0x00, 
  0x00, 
  0x00, 
  0x00, 
  0x00, 
  0x00, 
  0x00, 
  0x00, 
  0x00, 
  0x00, 
  0x00, 
  0x00, 
  0x00, 
  0x00, 
  0x00, 
  0x00, 
  0x00, 
  0x00, 
  0x00, 
  0x00, 
  0x00, 
  0x00, 
  0x00, 
  0x00, 
  0x00, 
  0x00, 
  0x00, 
  0x00, 
  0x00, 
  0x00, 
  0x00, 
  0x00, 
  0x00, 
  0x00, 
  0x00, 
  0x00, 
  0x00, 
  0x00, 
  0x00, 
  0x00, 
  0x00, 
  0x00, 
  0x00, 
  0x00, 
  0x00, 
  0x00, 
  0x00, 
  0x00, 
  0x00, 
  0x00, 
  0x00, 
  0x00, 
  0x00, 
  0x00, 
  0x00, 
  0x00, 
  0x00, 
  0x00, 
  0x00, 
  0x00, 
  0x00, 
  0x00, 
  0x00, 
  0x00, 
  0x00, 
  0x00, 
  0x00, 
  0x00, 
  0x00, 
  0x00, 
  0x00, 
  0x00, 
  0x00, 
  0x00, 
  0x00, 
  0x00, 
  0x00, 
  0x00, 
  0x00, 
  0x00, 
  0x00, 
  0x00, 
  0x00, 
  0x00, 
  0x00, 
  0x00, 
  0x00, 
  0x00, 
  0x00, 
  0x00, 
  0x00, 
  0x00, 
  0x00, 
  0x00, 
  0x00, 
  0x00, 
  0x00, 
  0x00, 
  0x00, 
  0x00, 
  0x00, 
  0x00, 
  0x00, 
  0x00, 
  0x00, 
  0x00, 
  0x00, 
  0x00, 
  0x00, 
  0x00, 
  0x00, 
  0x00, 
  0x00, 
  0x00, 
  0x00, 
  0x00, 
  0x00, 
  0x00, 
  0x00, 
  0x00, 
  0x00, 
  0x00, 
  0x00, 
  0x00, 
  0x00, 
  0x00, 
  0x00, 
  0x00, 
  0x00, 
  0x00, 
  0x00, 
  0x00, 
  0x00, 
  0x00, 
  0x00, 
  0x00, 
  0x00, 
  0x00, 
  0x00, 
  0x00, 
  0x00, 
  0x00, 
  0x00, 
  0x00, 
  0x00, 
  0x00, 
  0x00, 
  0x00, 
  0x00, 
  0x00, 
  0x00, 
  0x00, 
  0x00, 
  0x00, 
  0x00, 
  0x00, 
  0x00, 
  0x00, 
  0x00, 
  0x00, 
  0x00, 
  0x00, 
  0x00, 
  0x00, 
  0x00, 
  0x00, 
  0x00, 
  0x00, 
  0x00, 
  0x00, 
  0x00, 
  0x00, 
  0x00, 
  0x00, 
  0x00, 
  0x00, 
  0x00, 
  0x00, 
  0x00, 
  0x00, 
  0x00, 
  0x00, 
  0x00, 
  0x00, 
  0x00, 
  0x00, 
  0x00, 
  0x00, 
  0x00, 
  0x00, 
  0x00, 
  0x00, 
  0x00, 
  0x00, 
  0x00, 
  0x00, 
  0x00, 
  0x00, 
  0x00, 
  0x00, 
  0x00, 
  0x00, 
  0x00, 
  0x00, 
  0x00, 
  0x00, 
  0x00, 
  0x00, 
  0x00, 
  0x00, 
  0x00, 
  0x00, 
  0x00, 
  0x00, 
  0x00, 
  0x00, 
  0x00, 
  0x00, 
  0x00, 
  0x00, 
  0x00, 
  0x00, 
  0x00, 
  0x00, 
  0x00, 
  0x00, 
  0x00, 
  0x00, 
  0x00, 
  0x00, 
  0x00, 
  0x00, 
  0x00, 
  0x00, 
  0x00, 
  0x00, 
  0x00, 
  0x00, 
  0x00, 
  0x00, 
  0x00, 
  0x00, 
  0x00, 
  0x00, 
  0x00, 
  0x00, 
  0x00, 
  0x00, 
  0x00, 
  0x00, 
  0x00, 
  0x00, 
  0x00, 
  0x00, 
  0x00, 
  0x00, 
  0x00, 
  0x00, 
  0x00, 
  0x00, 
  0x00, 
  0x00, 
  0x00, 
  0x00, 
  0x00, 
  0x00, 
  0x00, 
  0x00, 
  0x00, 
  0x00, 
  0x00, 
  0x00, 
  0x00, 
  0x00, 
  0x00, 
  0x00, 
  0x00, 
  0x00, 
  0x00, 
  0x00, 
  0x00, 
  0x00, 
  0x00, 
  0x00, 
  0x00, 
  0x00, 
  0x00, 
  0x00, 
  0x00, 
  0x00, 
  0x00, 
  0x00, 
  0x00, 
  0x00, 
  0x00, 
  0x00, 
  0x00, 
  0x00, 
  0x00, 
  0x00, 
  0x00, 
  0x00, 
  0x00, 
  0x00, 
  0x00, 
  0x00, 
  0x00, 
  0x00, 
  0x00, 
  0x00, 
  0x00, 
  0x00, 
  0x00, 
  0x00, 
  0x00, 
  0x00, 
  0x00, 
  0x00, 
  0x00, 
  0x00, 
  0x00, 
  0x00, 
  0x00, 
  0x00, 
  0x00, 
  0x00, 
  0x00, 
  0x00, 
  0x00, 
  0x00, 
  0x00, 
  0x00, 
  0x00, 
  0x00, 
  0x00, 
  0x00, 
  0x00, 
  0x00, 
  0x00, 
  0x00, 
  0x00, 
  0x00, 
  0x00, 
  0x00, 
  0x00, 
  0x00, 
  0x00, 
  0x00, 
  0x00, 
  0x00, 
  0x00, 
  0x00, 
  0x00, 
  0x00, 
  0x00, 
  0x00, 
  0x00, 
  0x00, 
  0x00, 
  0x00, 
  0x00, 
  0x00, 
  0x00, 
  0x00, 
  0x00, 
  0x00, 
  0x00, 
  0x00, 
  0x00, 
  0x00, 
  0x00, 
  0x00, 
  0x00, 
  0x00, 
  0x00, 
  0x00, 
  0x00, 
  0x00, 
  0x00, 
  0x00, 
  0x00, 
  0x00, 
  0x00, 
  0x00, 
  0x00, 
  0x00, 
  0x00, 
  0x00, 
  0x00, 
  0x00, 
  0x00, 
  0x00, 
  0x00, 
  0x00, 
  0x00, 
  0x00, 
  0x00, 
  0x00, 
  0x00, 
  0x00, 
  0x00, 
  0x00, 
  0x00, 
  0x00, 
  0x00, 
  0x00, 
  0x00, 
  0x00, 
  0x00, 
  0x00, 
  0x00, 
  0x00, 
  0x00, 
  0x00, 
  0x00, 
  0x00, 
  0x00, 
  0x00, 
  0x00, 
  0x00, 
  0x00, 
  0x00, 
  0x00, 
  0x00, 
  0x00, 
  0x00, 
  0x00, 
  0x00, 
  0x00, 
  0x00, 
  0x00, 
  0x00, 
  0x00, 
  0x00, 
  0x00, 
  0x00, 
  0x00, 
  0x00, 
  0x00, 
  0x00, 
  0x00, 
  0x00, 
  0x00, 
  0x00, 
  0x00, 
  0x00, 
  0x00, 
  0x00, 
  0x00, 
  0x00, 
  0x00, 
  0x00, 
  0x00, 
  0x00, 
  0x00, 
  0x00, 
  0x00, 
  0x00, 
  0x00, 
  0x00, 
  0x00, 
  0x00, 
  0x00, 
  0x00, 
  0x00, 
  0x00, 
  0x00, 
  0x00, 
  0x00, 
  0x00, 
  0x00, 
  0x00, 
  0x00, 
  0x00, 
  0x00, 
  0x00, 
  0x00, 
  0x00, 
  0x00, 
  0x00, 
  0x00, 
  0x00, 
  0x00, 
  0x00, 
  0x00, 
  0x00, 
  0x00, 
  0x00, 
  0x00, 
  0x00, 
  0x00, 
  0x00, 
  0x00, 
  0x00, 
  0x00, 
  0x00, 
  0x00, 
  0x00, 
  0x00, 
  0x00, 
  0x00, 
  0x00, 
  0x00, 
  0x00, 
  0x00, 
  0x00, 
  0x00, 
  0x00, 
  0x00, 
  0x00, 
  0x00, 
  0x00, 
  0x00, 
  0x00, 
  0x00, 
  0x00, 
  0x00, 
  0x00, 
  0x00, 
  0x00, 
  0x00, 
  0x00, 
  0x00, 
  0x00, 
  0x00, 
  0x00, 
  0x00, 
  0x00, 
  0x00, 
  0x00, 
  0x00, 
  0x00, 
  0x00, 
  0x00, 
  0x00, 
  0x00, 
  0x00, 
  0x00, 
  0x00, 
  0x00, 
  0x00, 
  0x00, 
  0x00, 
  0x00, 
  0x00, 
  0x00, 
  0x00, 
  0x00, 
  0x00, 
  0x00, 
  0x00, 
  0x00, 
  0x00, 
  0x00, 
  0x00, 
  0x00, 
  0x00, 
  0x00, 
  0x00, 
  0x00, 
  0x00, 
  0x00, 
  0x00, 
  0x00, 
  0x00, 
  0x00, 
  0x00, 
  0x00, 
  0x00, 
  0x00, 
  0x00, 
  0x00, 
  0x00, 
  0x00, 
  0x00, 
  0x00, 
  0x00, 
  0x00, 
  0x00, 
  0x00, 
  0x00, 
  0x00, 
  0x00, 
  0x00, 
  0x00, 
  0x00, 
  0x00, 
  0x00, 
  0x00, 
  0x00, 
  0x00, 
  0x00, 
  0x00, 
  0x00, 
  0x00, 
  0x00, 
  0x00, 
  0x00, 
  0x00, 
  0x00, 
  0x00, 
  0x00, 
  0x00, 
  0x00, 
  0x00, 
  0x00, 
  0x00, 
  0x00, 
  0x00, 
  0x00, 
  0x00, 
  0x00, 
  0x00, 
  0x00, 
  0x00, 
  0x00, 
  0x00, 
  0x00, 
  0x00, 
  0x00, 
  0x00, 
  0x00, 
  0x00, 
  0x00, 
  0x00, 
  0x00, 
  0x00, 
  0x00, 
  0x00, 
  0x00, 
  0x00, 
  0x00, 
  0x00, 
  0x00, 
  0x00, 
  0x00, 
  0x00, 
  0x00, 
  0x00, 
  0x00, 
  0x00, 
  0x00, 
  0x00, 
  0x00, 
  0x00, 
  0x00, 
  0x00, 
  0x00, 
  0x00, 
  0x00, 
  0x00, 
  0x00, 
  0x00, 
  0x00, 
  0x00, 
  0x00, 
  0x00, 
  0x00, 
  0x00, 
  0x00, 
  0x00, 
  0x00, 
  0x00, 
  0x00, 
  0x00, 
  0x00, 
  0x00, 
  0x00, 
  0x00, 
  0x00, 
  0x00, 
  0x00, 
  0x00, 
  0x00, 
  0x00, 
  0x00, 
  0x00, 
  0x00, 
  0x00, 
  0x00, 
  0x00, 
  0x00, 
  0x00, 
  0x00, 
  0x00, 
  0x00, 
  0x00, 
  0x00, 
  0x00, 
  0x00, 
  0x00, 
  0x00, 
  0x00, 
  0x00, 
  0x00, 
  0x00, 
  0x00, 
  0x00, 
  0x00, 
  0x00, 
  0x00, 
  0x00, 
  0x00, 
  0x00, 
  0x00, 
  0x00, 
  0x00, 
  0x00, 
  0x00, 
  0x00, 
  0x00, 
  0x00, 
  0x00, 
  0x00, 
  0x00, 
  0x00, 
  0x00, 
  0x00, 
  0x00, 
  0x00, 
  0x00, 
  0x00, 
  0x00, 
  0x00, 
  0x00, 
  0x00, 
  0x00, 
  0x00, 
  0x00, 
  0x00, 
  0x00, 
  0x00, 
  0x00, 
  0x00, 
  0x00, 
  0x00, 
  0x00, 
  0x00, 
  0x00, 
  0x00, 
  0x00, 
  0x00, 
  0x00, 
  0x00, 
  0x00, 
  0x00, 
  0x00, 
  0x00, 
  0x00, 
  0x00, 
  0x00, 
  0x00, 
  0x00, 
  0x00, 
  0x00, 
  0x00, 
  0x00, 
  0x00, 
  0x00, 
  0x00, 
  0x00, 
  0x00, 
  0x00, 
  0x00, 
  0x00, 
  0x00, 
  0x00, 
  0x00, 
  0x00, 
  0x00, 
  0x00, 
  0x00, 
  0x00, 
  0x00, 
  0x00, 
  0x00, 
  0x00, 
  0x00, 
  0x00, 
  0x00, 
  0x00, 
  0x00, 
  0x00, 
  0x00, 
  0x00, 
  0x00, 
  0x00, 
  0x00, 
  0x00, 
  0x00, 
  0x00, 
  0x00, 
  0x00, 
  0x00, 
  0x00, 
  0x00, 
  0x00, 
  0x00, 
  0x00, 
  0x00, 
  0x00, 
  0x00, 
  0x00, 
  0x00, 
  0x00, 
  0x00, 
  0x00, 
  0x00, 
  0x00, 
  0x00, 
  0x00, 
  0x00, 
  0x00, 
  0x00, 
  0x00, 
  0x00, 
  0x00, 
  0x00, 
  0x00, 
  0x00, 
  0x00, 
  0x00, 
  0x00, 
  0x00, 
  0x00, 
  0x00, 
  0x00, 
  0x00, 
  0x00, 
  0x00, 
  0x00, 
  0x00, 
  0x00, 
  0x00, 
  0x00, 
  0x00, 
  0x00, 
  0x00, 
  0x00, 
  0x00, 
  0x00, 
  0x00, 
  0x00, 
  0x00, 
  0x00, 
  0x00, 
  0x00, 
  0x00, 
  0x00, 
  0x00, 
  0x00, 
  0x00, 
  0x00, 
  0x00, 
  0x00, 
  0x00, 
  0x00, 
  0x00, 
  0x00, 
  0x00, 
  0x00, 
  0x00, 
  0x00, 
  0x00, 
  0x00, 
  0x00, 
  0x00, 
  0x00, 
  0x00, 
  0x00, 
  0x00, 
  0x00, 
  0x00, 
  0x00, 
  0x00, 
  0x00, 
  0x00, 
  0x00, 
  0x00, 
  0x00, 
  0x00, 
  0x00, 
  0x00, 
  0x00, 
  0x00, 
  0x00, 
  0x00, 
  0x00, 
  0x00, 
  0x00, 
  0x00, 
  0x00, 
  0x00, 
  0x00, 
  0x00, 
  0x00, 
  0x00, 
  0x00, 
  0x00, 
  0x00, 
  0x00, 
  0x00, 
  0x00, 
  0x00, 
  0x00, 
  0x00, 
  0x00, 
  0x00, 
  0x00, 
  0x00, 
  0x00, 
  0x00, 
  0x00, 
  0x00, 
  0x00, 
  0x00, 
  0x00, 
  0x00, 
  0x00, 
  0x00, 
  0x00, 
  0x00, 
  0x00, 
  0x00, 
  0x00, 
  0x00, 
  0x00, 
  0x00, 
  0x00, 
  0x00, 
  0x00, 
  0x00, 
  0x00, 
  0x00, 
  0x00, 
  0x00, 
  0x00, 
  0x00, 
  0x00, 
  0x00, 
  0x00, 
  0x00, 
  0x00, 
  0x00, 
  0x00, 
  0x00, 
  0x00, 
  0x00, 
  0x00, 
  0x00, 
  0x00, 
  0x00, 
  0x00, 
  0x00, 
  0x00, 
  0x00, 
  0x00, 
  0x00, 
  0x00, 
  0x00, 
  0x00, 
  0x00, 
  0x00, 
  0x00, 
  0x00, 
  0x00, 
  0x00, 
  0x00, 
  0x00, 
  0x00, 
  0x00, 
  0x00, 
  0x00, 
  0x00, 
  0x00, 
  0x00, 
  0x00, 
  0x00, 
  0x00, 
  0x00, 
  0x00, 
  0x00, 
  0x00, 
  0x00, 
  0x00, 
  0x00, 
  0x00, 
  0x00, 
  0x00, 
  0x00, 
  0x00, 
  0x00, 
  0x00, 
  0x00, 
  0x00, 
  0x00, 
  0x00, 
  0x00, 
  0x00, 
  0x00, 
  0x00, 
  0x00, 
  0x00, 
  0x00, 
  0x00, 
  0x00, 
  0x00, 
  0x00, 
  0x00, 
  0x00, 
  0x00, 
  0x00, 
  0x00, 
  0x00, 
  0x00, 
  0x00, 
  0x00, 
  0x00, 
  0x00, 
  0x00, 
  0x00, 
  0x00, 
  0x00, 
  0x00, 
  0x00, 
  0x00, 
  0x00, 
  0x00, 
  0x00, 
  0x00, 
  0x00, 
  0x00, 
  0x00, 
  0x00, 
  0x00, 
  0x00, 
  0x00, 
  0x00, 
  0x00, 
  0x00, 
  0x00, 
  0x00, 
  0x00, 
  0x00, 
  0x00, 
  0x00, 
  0x00, 
  0x00, 
  0x00, 
  0x00, 
  0x00, 
  0x00, 
  0x00, 
  0x00, 
  0x00, 
  0x00, 
  0x00, 
  0x00, 
  0x00, 
  0x00, 
  0x00, 
  0x00, 
  0x00, 
  0x00, 
  0x00, 
  0x00, 
  0x00, 
  0x00, 
  0x00, 
  0x00, 
  0x00, 
  0x00, 
  0x00, 
  0x00, 
  0x00, 
  0x00, 
  0x00, 
  0x00, 
  0x00, 
  0x00, 
  0x00, 
  0x00, 
  0x00, 
  0x00, 
  0x00, 
  0x00, 
  0x00, 
  0x00, 
  0x00, 
  0x00, 
  0x00, 
  0x00, 
  0x00, 
  0x00, 
  0x00, 
  0x00, 
  0x00, 
  0x00, 
  0x00, 
  0x00, 
  0x00, 
  0x00, 
  0x00, 
  0x00, 
  0x00, 
  0x00, 
  0x00, 
  0x00, 
  0x00, 
  0x00, 
  0x00, 
  0x00, 
  0x00, 
  0x00, 
  0x00, 
  0x00, 
  0x00, 
  0x00, 
  0x00, 
  0x00, 
  0x00, 
  0x00, 
  0x00, 
  0x00, 
  0x00, 
  0x00, 
  0x00, 
  0x00, 
  0x00, 
  0x00, 
  0x00, 
  0x00, 
  0x00, 
  0x00, 
  0x00, 
  0x00, 
  0x00, 
  0x00, 
  0x00, 
  0x00, 
  0x00, 
  0x00, 
  0x00, 
  0x00, 
  0x00, 
  0x00, 
  0x00, 
  0x00, 
  0x00, 
  0x00, 
  0x00, 
  0x00, 
  0x00, 
  0x00, 
  0x00, 
  0x00, 
  0x00, 
  0x00, 
  0x00, 
  0x00, 
  0x00, 
  0x00, 
  0x00, 
  0x00, 
  0x00, 
  0x00, 
  0x00, 
  0x00, 
  0x00, 
  0x00, 
  0x00, 
  0x00, 
  0x00, 
  0x00, 
  0x00, 
  0x00, 
  0x00, 
  0x00, 
  0x00, 
  0x00, 
  0x00, 
  0x00, 
  0x00, 
  0x00, 
  0x00, 
  0x00, 
  0x00, 
  0x00, 
  0x00, 
  0x00, 
  0x00, 
  0x00, 
  0x00, 
  0x00, 
  0x00, 
  0x00, 
  0x00, 
  0x00, 
  0x00, 
  0x00, 
  0x00, 
  0x00, 
  0x00, 
  0x00, 
  0x00, 
  0x00, 
  0x00, 
  0x00, 
  0x00, 
  0x00, 
  0x00, 
  0x00, 
  0x00, 
  0x00, 
  0x00, 
  0x00, 
  0x00, 
  0x00, 
  0x00, 
  0x00, 
  0x00, 
  0x00, 
  0x00, 
  0x00, 
  0x00, 
  0x00, 
  0x00, 

}
